<svg width="34" height="34" viewBox="0 0 34 34" fill="none" xmlns="http://www.w3.org/2000/svg">
<path d="M32.7327 23.6242C30.7734 22.8309 28.7183 22.1858 26.614 21.6923C26.3043 17.9273 24.7212 14.5385 22.2713 12.4987L27.18 7.67935C27.2994 7.56208 27.3591 7.44487 27.3591 7.26903C27.3591 7.09318 27.2993 6.97591 27.18 6.8587L25.5082 5.21734C25.2694 4.98286 24.9111 4.98286 24.6723 5.21734L19.4799 10.3338C19.4377 10.177 19.4181 10.0127 19.4181 9.84838V8.85182C20.851 8.03111 21.8063 6.50702 21.8063 4.80702C21.8063 4.78736 21.8051 4.76797 21.8048 4.74838C21.8051 4.72879 21.8063 4.7094 21.8063 4.68974C21.8064 2.11032 19.657 0 17.0299 0C14.4028 0 12.2534 2.11032 12.2534 4.68968C12.2534 4.70933 12.2547 4.72872 12.2549 4.74831C12.2547 4.7679 12.2534 4.78729 12.2534 4.80695C12.2534 6.44831 13.2087 8.03111 14.6416 8.85175V9.84831C14.6416 10.4931 14.2237 11.138 13.5669 11.4311C10.2089 13.0796 7.86162 17.0431 7.50464 21.6113C5.3083 22.1288 3.21422 22.8333 1.26739 23.6829C1.08829 23.7415 0.909119 23.9173 0.909119 24.1518C0.909119 24.3863 0.968841 24.5621 1.14794 24.6794L3.53617 26.2621C3.71527 26.3794 3.89444 26.3794 4.07354 26.3208C5.24594 25.9371 6.37992 25.601 7.48516 25.3121C7.56436 28.6109 8.21103 31.5691 9.32764 33.707C9.44708 33.8829 9.62618 34.0001 9.865 34.0001H12.8503C13.0294 34.0001 13.328 33.8829 13.3877 33.707C13.4474 33.5312 13.5071 33.2967 13.3877 33.1208C12.6712 31.7725 12.313 29.838 12.2533 27.4345C15.358 26.8483 18.7613 26.8483 21.8063 27.4345C21.7465 29.838 21.3883 31.7725 20.6719 33.1208C20.5524 33.2966 20.5524 33.5311 20.6719 33.707C20.7913 33.8829 21.0301 34.0001 21.2092 34.0001H24.1946C24.4334 34.0001 24.6125 33.8829 24.6722 33.707C25.7912 31.5647 26.4383 28.5987 26.5153 25.2916C27.6398 25.5851 28.7933 25.928 29.986 26.3208C30.0458 26.3795 30.1055 26.3795 30.1651 26.3795C30.2846 26.3795 30.404 26.3208 30.4637 26.2036L32.8519 24.6209C33.031 24.5036 33.0907 24.3278 33.0907 24.0933C33.0909 23.9173 32.9118 23.6827 32.7327 23.6242V23.6242ZM25.3291 21.3966C22.8807 20.8957 20.3888 20.6096 17.9277 20.5367C16.6676 20.4933 15.4122 20.5038 14.1703 20.5697L21.4482 13.4242C23.5976 15.1827 25.0305 18.1138 25.3291 21.3966ZM15.4874 7.86177C15.4841 7.85958 15.4808 7.85725 15.4776 7.85513C15.4116 7.82425 15.3472 7.79125 15.2839 7.75685C14.2918 7.20873 13.588 6.21091 13.4663 5.0496C13.4661 5.04707 13.4659 5.04455 13.4657 5.04203C13.4605 4.99196 13.4568 4.94155 13.4539 4.89095C13.4532 4.87787 13.4524 4.86486 13.4518 4.85177C13.4493 4.79798 13.4476 4.744 13.4476 4.68961C13.4476 2.75513 15.0596 1.17234 17.03 1.17234C19.0004 1.17234 20.6124 2.75513 20.5527 4.68961C20.5527 6.03786 19.7765 7.26889 18.5227 7.85513C18.4672 7.88242 18.4187 7.91317 18.376 7.94677C17.9599 8.11385 17.5056 8.20682 17.03 8.20682C16.4784 8.20688 15.9552 8.08277 15.4874 7.86177V7.86177ZM14.1043 12.369C15.179 11.8414 15.8358 10.8448 15.8358 9.73104V9.22987C16.2178 9.32736 16.6179 9.37928 17.0299 9.37928C17.4206 9.37928 17.8003 9.33161 18.1643 9.24368V9.73104C18.1643 10.2 18.3434 10.7276 18.5822 11.1379L8.79047 20.7518C9.32784 16.9414 11.3578 13.7172 14.1043 12.369V12.369ZM23.8364 32.8276H22.105C22.702 31.3034 23.0005 29.3103 23.0005 26.9655C23.0005 26.6724 22.8214 26.4379 22.5229 26.3793C19.0599 25.6172 15.0596 25.6172 11.5369 26.3793C11.2384 26.4379 11.0593 26.6724 11.0593 26.9655C11.0593 29.3103 11.3578 31.3034 11.9548 32.8276H10.2233C9.26805 30.8345 8.73068 28.1379 8.67096 25.0897C8.90978 25.031 9.08888 24.9724 9.3277 24.9138C14.5221 23.8001 19.1792 23.8001 24.3139 24.8552C24.6722 24.9138 25.0304 25.031 25.3887 25.0897C25.3291 28.1379 24.7917 30.8345 23.8364 32.8276V32.8276ZM30.1056 25.1482C25.8728 23.7891 22.1147 23.0365 18.408 22.8894C15.3239 22.7516 12.2862 23.0307 9.02929 23.7414C8.67102 23.8586 8.2531 23.9172 7.8949 24.0345C7.88523 24.0393 7.87583 24.0442 7.86636 24.0492C6.6201 24.3561 5.34036 24.7224 4.01395 25.1482L2.76011 24.3275C4.43295 23.6158 6.31405 23.0576 8.20894 22.6527C8.22368 22.6609 8.23836 22.6718 8.2531 22.6862C8.31282 22.6275 8.37255 22.6275 8.4322 22.6275C8.44472 22.6152 8.45729 22.6059 8.46988 22.5983C8.51702 22.5886 8.56416 22.5785 8.61137 22.569C8.73082 22.5103 8.85019 22.4517 8.90991 22.3931L19.7764 11.7828C19.8346 11.7257 19.8783 11.6616 19.909 11.594L25.0903 6.50688L25.9263 7.3276L12.0744 20.9276C11.8953 21.1034 11.8356 21.3379 11.955 21.5724C12.0744 21.8069 12.3132 21.9242 12.552 21.9242C12.5599 21.9234 12.5677 21.9227 12.5755 21.9219C12.5876 21.9225 12.5997 21.9242 12.6118 21.9242C15.1995 21.6805 17.8714 21.6642 20.5151 21.8997C22.0638 22.0438 23.6064 22.2721 25.1292 22.5823C25.3759 22.6342 25.6218 22.6881 25.8666 22.7449H25.8903C27.7346 23.1552 29.5463 23.6842 31.2999 24.3277L30.1056 25.1482Z" fill="#030305"/>
</svg>
