<svg width="34" height="34" viewBox="0 0 34 34" fill="none" xmlns="http://www.w3.org/2000/svg">
<path d="M17 0C7.65 0 0 7.65 0 17C0 26.35 7.65 34 17 34C26.35 34 34 26.35 34 17C34 7.65 26.35 0 17 0ZM17 32.8666C8.27336 32.8666 1.13336 25.7266 1.13336 17C1.13336 8.27336 8.27336 1.13336 17 1.13336C25.7266 1.13336 32.8666 8.27336 32.8666 17C32.8666 25.7266 25.7266 32.8666 17 32.8666Z" fill="#030305"/>
<path d="M19.2666 20.9667C19.2666 19.72 18.2466 18.7 17 18.7C15.7533 18.7 14.7333 19.72 14.7333 20.9667C14.7333 22.2133 15.7533 23.2333 17 23.2333C18.2466 23.2334 19.2666 22.2134 19.2666 20.9667ZM17 22.1C16.3766 22.1 15.8666 21.59 15.8666 20.9667C15.8666 20.3433 16.3766 19.8333 17 19.8333C17.6233 19.8333 18.1333 20.3433 18.1333 20.9667C18.1333 21.59 17.6233 22.1 17 22.1V22.1Z" fill="#030305"/>
<path d="M18.7 17C18.7 18.2467 19.72 19.2667 20.9667 19.2667C22.2133 19.2667 23.2333 18.2467 23.2333 17C23.2333 15.7534 22.2133 14.7334 20.9667 14.7334C19.72 14.7334 18.7 15.7534 18.7 17V17ZM22.1 17C22.1 17.6234 21.59 18.1334 20.9667 18.1334C20.3433 18.1334 19.8333 17.6234 19.8333 17C19.8333 16.3767 20.3433 15.8667 20.9667 15.8667C21.59 15.8667 22.1 16.3767 22.1 17Z" fill="#030305"/>
<path d="M14.7333 13.0334C14.7333 14.28 15.7533 15.3 17 15.3C18.2466 15.3 19.2666 14.28 19.2666 13.0334C19.2666 11.7867 18.2466 10.7667 17 10.7667C15.7533 10.7667 14.7333 11.7867 14.7333 13.0334V13.0334ZM17 11.9C17.6233 11.9 18.1333 12.41 18.1333 13.0334C18.1333 13.6567 17.6233 14.1667 17 14.1667C16.3766 14.1667 15.8666 13.6567 15.8666 13.0334C15.8666 12.41 16.3766 11.9 17 11.9Z" fill="#030305"/>
<path d="M13.0334 14.7334C11.7867 14.7334 10.7667 15.7534 10.7667 17C10.7667 18.2467 11.7867 19.2667 13.0334 19.2667C14.28 19.2667 15.3 18.2467 15.3 17C15.3 15.7534 14.28 14.7334 13.0334 14.7334V14.7334ZM13.0334 18.1334C12.41 18.1334 11.9 17.6234 11.9 17C11.9 16.3767 12.41 15.8667 13.0334 15.8667C13.6567 15.8667 14.1667 16.3767 14.1667 17C14.1667 17.6234 13.6567 18.1334 13.0334 18.1334Z" fill="#030305"/>
<path d="M2.83336 14.8467C4.42 15.5267 6.12 15.8667 7.82 15.8667H9.23665C9.52 15.8667 9.74665 15.6967 9.74665 15.47C10.37 12.6934 12.58 10.4834 15.3567 9.86001C15.64 9.80336 15.81 9.57665 15.81 9.29336V7.87672C15.81 6.12007 15.47 4.47671 14.79 2.89007C14.6767 2.66342 14.45 2.49342 14.1667 2.55007C8.33 3.68336 3.62665 8.38665 2.49336 14.2234C2.43665 14.5067 2.60665 14.7334 2.83336 14.8467V14.8467ZM13.9967 3.74C14.45 5.04336 14.7333 6.40336 14.7333 7.82V8.78336C11.8433 9.57672 9.57665 11.8434 8.78329 14.7334H7.82C6.40336 14.7334 5.04336 14.5067 3.74 13.9967C4.87336 8.95336 8.95336 4.87336 13.9967 3.74Z" fill="#030305"/>
<path d="M18.5867 9.80336C21.3633 10.4267 23.5733 12.6367 24.1967 15.4134C24.2533 15.6967 24.48 15.8667 24.7633 15.8667H26.1799C27.8799 15.8667 29.5799 15.5267 31.1099 14.7901C31.3366 14.6767 31.5066 14.4501 31.4499 14.1667C30.3166 8.33008 25.6133 3.62672 19.7766 2.49337C19.4932 2.43672 19.2666 2.60672 19.1532 2.83337C18.4732 4.42001 18.1332 6.12001 18.1332 7.82001V9.23665C18.1334 9.52001 18.3034 9.74665 18.5867 9.80336ZM19.3234 7.87665C19.3234 6.46001 19.55 5.10001 20.06 3.79666C25.1034 4.93001 29.1266 8.9533 30.26 13.9967C28.9566 14.45 27.5967 14.7333 26.18 14.7333H25.2167C24.4233 11.8433 22.1567 9.57665 19.3233 8.83994V7.87665H19.3234Z" fill="#030305"/>
<path d="M15.47 24.1967C12.6934 23.5733 10.4834 21.3633 9.86 18.5867C9.80335 18.3033 9.57664 18.1333 9.29335 18.1333H7.87671C6.12007 18.1333 4.47671 18.4733 2.89007 19.1533C2.66342 19.2667 2.49342 19.4933 2.55007 19.7767C3.68342 25.6133 8.38671 30.3167 14.2234 31.45H14.3368C14.5634 31.45 14.7334 31.3367 14.9034 31.1667C15.5834 29.58 15.9234 27.88 15.9234 26.18V24.7634C15.9234 24.48 15.7534 24.2534 15.47 24.1967V24.1967ZM14.6766 26.1234C14.6766 27.54 14.45 28.9 13.94 30.2034C8.89664 29.07 4.87336 25.0467 3.74 20.0034C5.04336 19.55 6.40336 19.2667 7.76335 19.21H8.72671C9.52007 22.1 11.7867 24.3667 14.6767 25.16V26.1234H14.6766Z" fill="#030305"/>
<path d="M31.1667 19.0967C29.58 18.4167 27.88 18.0767 26.18 18.0767H24.7634C24.48 18.0767 24.2534 18.2467 24.1967 18.53C23.5734 21.3067 21.3634 23.5167 18.5867 24.14C18.3034 24.1967 18.1334 24.4234 18.1334 24.7067V26.1233C18.1334 27.8799 18.4734 29.5233 19.1534 31.11C19.21 31.3366 19.4367 31.4499 19.6634 31.4499C19.72 31.4499 19.7767 31.45 19.8334 31.3933C25.67 30.2599 30.3734 25.5567 31.5067 19.7199C31.5634 19.4367 31.3934 19.21 31.1667 19.0967V19.0967ZM20.0034 30.26C19.55 28.9567 19.2667 27.5967 19.2667 26.18V25.2167C22.1567 24.4233 24.4234 22.1567 25.1601 19.3233H26.1234C27.5401 19.3233 28.9001 19.5499 30.2034 20.0599C29.07 25.1034 25.0467 29.1267 20.0034 30.26Z" fill="#030305"/>
</svg>
